<svg id="Capa_1" data-name="Capa 1" xmlns="http://www.w3.org/2000/svg" viewBox="0 0 722.25 149.46"><defs><style>.cls-1{fill:#098aff;}</style></defs><title>accesspro</title><path class="cls-1" d="M-273.57-45.9c-.44-.82-.77-2.17-1.32-2.36C-285.6-52-289.95-63.17-291.61-76.4c-2.18-17.41.78-33.88,7-49.27s15.93-23.37,28.35-26.64c7.65-2,14.82-.65,21.53,3.92,5.77,3.93,9,11,9.51,21.26,1.88-2.2,3.51-3.47,4.5-5.37,8.74-16.87,27.93-24.75,42.81-18.5,6.84,2.88,12.69,12.78,13.49,22.92.05.66.27,1.3.66,3.11,2-3.35,3.65-6,5.16-8.71,9.45-17.22,31.14-24.73,45.65-15.4,5.66,3.64,9.14,9.45,11.32,17.18a64.67,64.67,0,0,0,2.68,6.44c3.11-11.77,8.84-18.42,16-22.3,11.31-6.16,23-8.48,34.54-.95,4.37,2.84,7.34,7.65,8.64,14.18.26,1.32.54,2.62.94,4.59,1.15-1.23,2-1.78,2.49-2.71,5.86-11.77,14.46-17,24.31-19.54,8.06-2.09,15.79-.94,23.34,3.27,5.65,3.15,9.61,11.89,9.34,20.3-.12,3.61-1.23,5.39-3.92,5.34a79.64,79.64,0,0,0-8.84,0c-3.94.36-6.87-.27-7.71-6.94-.55-4.33-6.47-6.59-11.51-5.08a13.77,13.77,0,0,0-3.62,2c-2.77,1.91-5.57,4.95-4.4,9.13a14.28,14.28,0,0,0,6.16,8c6.56,3.55,13.48,5.81,20.15,9C22.44-99.76,19.65-78,12.86-66,7.8-57.05,1.17-51-7-48.17c-.74.26-1.29,1.49-1.93,2.27H-30.61c-.83-.87-1.57-2.08-2.5-2.57-5.06-2.61-9.67-5.88-12.09-13.05a9.48,9.48,0,0,0-1.07-2.16c-6.28,5-12.14,9.69-18,14.32-1.6,1.26-3.28,2.31-4.93,3.46H-90.14c-.89-.85-1.69-2-2.68-2.51-6.44-3-11.78-7.47-13.25-17.55-.18-1.25-1-2.33-1.64-3.79-.78.86-1.47,1.26-1.75,2-3.75,9.6-10.15,14.44-17.19,18.25A62.5,62.5,0,0,0-132-45.9h-19.31c-.83-.87-1.56-2.11-2.5-2.56-7-3.33-12.26-9.09-14.89-18.86-.5-1.86-1.32-3.56-2.22-5.93-.84,1.55-1.28,2.2-1.59,3-4.47,10.87-10.76,18.62-19.75,21.91-.68.25-1.13,1.63-1.69,2.48h-19.31c-.43-.82-.75-2.15-1.31-2.38-6.64-2.75-11.16-8.62-13.93-17.2-.77-2.38-1.66-4.68-2.63-7.39-1,1.24-1.89,1.92-2.25,3-3.93,11.51-10.76,18-19.41,21.55-.87.36-1.54,1.62-2.3,2.46Zm93.94-41.39v0c2.14,0,4.36.45,6.4-.18,1.13-.35,2.54-2.34,2.81-3.91,1.09-6.3,1.5-12.82,2.71-19.06.75-3.88,0-5.11-2.62-5.12a95.16,95.16,0,0,0-10.44.08c-3.23.35-4.15-1.24-4.08-5.55.12-7.06-2.12-11.33-6.13-13-3.27-1.33-8.16,1.26-10.35,6.12-7.09,15.73-8.69,33.23-8,51.19.23,6.08,3.75,8.81,8.26,9.37s8.4-4.52,9.89-9.73c2.92-10.19,3-10.17,11.16-10.2Zm-52.76,0c1.32-8.67,2.38-16.45,3.74-24.13.56-3.2-.44-4.06-2.33-4.14-2.94-.12-5.89,0-8.84,0-6,0-6.14,0-6-8.14.06-5.1-1.63-8.15-4.94-9.91-3.89-2.07-8.83.69-11.74,7.17-6.3,14-7.39,30-7.82,45.77-.21,7.41,2.85,14.12,9,13.33C-256.7-68-252-73-250.82-80.6c.79-5,2.54-7.11,6.34-6.78C-240.36-87-236.22-87.3-232.39-87.3ZM-150-92.5c0,4.88,0,9,0,13.22,0,6.12,2.43,10.76,6.62,12.83,6.2,3.06,13.92-1,17.5-10,1.43-3.58,3.08-4.47,5.66-4.27,10.88.83,21.77,1.6,32.65,2.41.23,0,.45.34.92.72-.23,6.36,2.06,10.34,6.79,11.78,5,1.52,9.58.2,13.55-4,4.27-4.51,4-12-.54-15.74-2.55-2.1-5.52-3.23-8.31-4.79C-81.77-94-88.51-97.52-95-101.64c-1.49-.94-2.23-4.09-3.31-6.22l-1.32,1.37c-.14,1-.37,2-.42,3-.49,9.86-1.36,11-8.6,11Zm109.6-30.81c-5,0-9.82-.05-14.62,0-2.48,0-3.76-1.12-4.43-4.76-.44-2.36-2.23-5.64-3.72-6-3.67-.8-7.81-1.3-11.17.34-2.32,1.14-4.54,5.81-5.07,9.38-.29,2,2.7,5.94,4.79,7.21,4.16,2.53,8.74,3.76,13.11,5.63,5.94,2.53,11.78,5,16.36,11.55,3.58,5.11,2.94,11,2.93,16.87,0,3.33,1,4.63,3.38,4.55,3.08-.1,6.16.06,9.24-.05,2.22-.09,3.25.74,3.64,4.19a11.58,11.58,0,0,0,3.27,6.69c4.86,4.14,10.36,3.39,14.65-.77,5.78-5.61,7.73-13-.28-18.23C-13.79-90.28-20-92-25.78-94.75c-6-2.86-11.7-6.59-13.51-16C-40-114.49-40-118.55-40.37-123.31ZM-134-111.5c3.2,0,6.44.37,9.6-.17,1.39-.24,3.51-2.08,3.74-3.63.86-5.66.15-11.35-2.82-15.72-2.59-3.81-8.42-4.13-12.33-2-5.59,3.05-7.93,9.54-10.16,16.38-1.18,3.62-.42,5.14,2.36,5.13Z" transform="translate(394.25 195.36)"/><path class="cls-1" d="M-394.25-51.4c1.18-1.79,2.67-3.35,3.48-5.41q15-38.06,29.93-76.24c7.78-19.82,15.57-39.64,23.5-59.35a4.64,4.64,0,0,1,3.59-2.57c7.89-.23,15.8-.12,24.34-.12l18.42,146a23.27,23.27,0,0,1-3.32.57c-3.75.07-7.51,0-11.26,0-8.7,0-8.64,0-9.58-11.66a143.83,143.83,0,0,0-1.75-14.94c-.31-1.67-2.11-4-3.26-4-12.6-.29-25.2-.1-37.8-.27-2.79,0-3.54,2.59-4.52,5.06-2.67,6.65-5.37,13.28-7.83,20.08-1.52,4.19-3.49,6.1-7.11,5.87-5.6-.36-11.23.14-16.85.27Zm67.74-111.15-1.68-.69-23.09,59.42c10.49,0,19.57.05,28.65,0,1.89,0,2.76-1.06,2.24-4.23-1.15-7-2-14.17-2.74-21.3C-324.34-140.43-325.39-151.5-326.51-162.55Z" transform="translate(394.25 195.36)"/><path class="cls-1" d="M220-48.52c-10.51,0-20.66.09-30.81-.18-.77,0-2-2.54-2.17-4.06-1.22-12.89-2.17-25.84-3.34-38.74-.52-5.75-4.5-11.45-8.66-11.85-4.9-.47-9.83-.11-15.23-.11,0,10.62,0,20.64,0,30.66,0,6.6-.07,13.19,0,19.79,0,3.27-.86,4.57-3.31,4.53-8-.12-16.08-.18-24.12,0-3.55.1-3.39-2.83-3.39-6.11q0-50,0-100c0-11.36.09-22.72,0-34.08-.05-4.69,1.28-6.53,4.74-6.5,15.14.14,30.3-.5,45.42.28,8.34.43,16.72,2,24.69,6.56,10.6,6.13,16.1,24.36,14.06,38.09-2,13.44-7,22.73-16.52,27.23a9.05,9.05,0,0,0-1.58,1.39c1,1.11,1.47,2.07,2.13,2.38,8.09,3.81,11.2,12.88,13.43,23.11a153.32,153.32,0,0,1,3.25,33.8C218.53-58.07,219.4-53.82,220-48.52Zm-60.18-117.6c0,11.24-.12,20.56.14,29.86,0,1.33,1.9,3.66,2.92,3.66A119,119,0,0,0,180-133.65c4.47-.65,7.34-5.87,7.74-12.64.55-9.23-1-15.19-5.75-16.47C174.9-164.67,167.62-165,159.79-166.12Z" transform="translate(394.25 195.36)"/><path class="cls-1" d="M221.92-122.17a101,101,0,0,1,6.57-39.74c5.67-14.78,14.57-23.51,25.71-28.75a47.1,47.1,0,0,1,25.1-4.34c13.22,1.33,25.68,6.05,35.21,19.55,8.65,12.26,13.29,27.24,13.33,44.41,0,12.15.93,24.36-1.87,36.35C320.45-71,309.26-55.4,291.33-50.58,274.21-46,257.23-46,242-60.37c-10.49-9.87-16.4-23.84-18.74-40.61C222.25-107.91,222.32-115.1,221.92-122.17Zm52.94,45.46c3.19-.94,6.58-1.22,9.52-2.95,9.51-5.58,12.73-17,13.48-30,.46-7.88.29-15.87,0-23.79-.44-13.94-5.84-29.29-18.67-32.51-10.18-2.56-22.33,6-25.14,19.46a113.11,113.11,0,0,0-.34,47C256.88-84.67,264.26-77.07,274.87-76.71Z" transform="translate(394.25 195.36)"/><path class="cls-1" d="M62.63-100.21c-.08,2.59-.2,4.55-.2,6.52,0,13.38,0,26.76,0,40.15,0,3.3-.52,5.15-3.32,5.09-7.91-.16-15.82-.14-23.73,0-2.29,0-3-1.11-3-4.18q.08-69,0-138c0-3.33.94-4.48,3.35-4.47,16.09.09,32.2-.71,48.26.3,10.63.67,21.42,2.86,30.09,13,5.57,6.51,8.49,14.84,9.53,24.78,1.17,11.25.53,22-3.14,32.28-4,11.17-10.77,18.07-19.22,21-6.46,2.27-13.29,2.84-20,3.44C75.19-99.78,69-100.21,62.63-100.21Zm0-28.9c4.71,0,9.12.28,13.49-.09a35.46,35.46,0,0,0,10.46-2.21c5.41-2.2,7.47-8.46,7.65-15.45.17-6.56-.68-13-5.62-16.74-8.28-6.25-17.12-2.71-26-3.84Z" transform="translate(394.25 195.36)"/></svg>