<svg id="Capa_1" data-name="Capa 1" xmlns="http://www.w3.org/2000/svg" viewBox="0 0 300.16 88.34"><defs><style>.cls-1{fill:#ff1123;}</style></defs><title>avaya</title><path class="cls-1" d="M20.6-57.92c-3.78,0-7.31,0-10.84-.05-.44,0-1-.69-1.26-1.19q-6.55-13.76-13-27.56l-11.4-24.16L-31.33-77.64h2.1c6.43,0,12.87,0,19.3,0A2,2,0,0,1-7.8-76.38c1.34,2.84,2.78,5.64,4.3,8.67-.73,0-1.29.08-1.85.08-9.76,0-19.52,0-29.28,0A2.13,2.13,0,0,0-37-66.23c-1,2.4-2.24,4.71-3.32,7.08a1.86,1.86,0,0,1-2,1.26c-3.15-.07-6.3,0-9.76,0,1.47-3.05,2.82-5.87,4.18-8.67q13.33-27.33,26.64-54.67a1.82,1.82,0,0,1,1.93-1.3c2.45.08,4.91,0,7.36.07a2.17,2.17,0,0,1,1.6.93Q4.9-90.36,20.06-59.12C20.2-58.83,20.33-58.52,20.6-57.92Z" transform="translate(165.77 122.62)"/><path class="cls-1" d="M98.22-110.87,82.4-77.64h2.09c6.6,0,13.2,0,19.8,0a1.86,1.86,0,0,1,2.07,1.32c1.17,2.85,2.48,5.64,3.86,8.72h-2c-9.54,0-19.09,0-28.63,0a2.16,2.16,0,0,0-2.37,1.43c-1.09,2.48-2.31,4.91-3.54,7.33-.21.41-.73.92-1.11.93-3.48.07-7,0-10.68,0a10.13,10.13,0,0,1,.41-1.32Q77.34-90.17,92.4-121.11a2.18,2.18,0,0,1,2.36-1.45c2.72.09,5.45,0,8.19,0l31.45,64.61c-2.18,0-4,0-5.82,0s-3.85.51-5.11-.28-1.7-2.92-2.44-4.48q-10.89-23.07-21.77-46.15C99-109.42,98.67-110,98.22-110.87Z" transform="translate(165.77 122.62)"/><path class="cls-1" d="M-165.77-57.92c1.3-2.68,2.42-5,3.56-7.33q13.79-27.93,27.58-55.86a2.17,2.17,0,0,1,2.36-1.45,60.2,60.2,0,0,0,6.21,0,2,2,0,0,1,2.22,1.4Q-111-94.75-98.15-68.37c1.48,3,3,6,4.44,9.08.18.37.28.78.49,1.36-3.56,0-6.92.05-10.29-.06-.47,0-1.09-.79-1.35-1.35-3.47-7.26-6.89-14.54-10.32-21.82l-13.4-28.46c-.14-.29-.33-.55-.69-1.17l-15.78,33.15h2c6.76,0,13.53,0,20.29,0a1.89,1.89,0,0,1,2.09,1.31c1.18,2.85,2.46,5.66,3.82,8.74h-2.11c-9.65,0-19.31,0-29,0a2.21,2.21,0,0,0-2.44,1.57c-1,2.4-2.18,4.73-3.36,7-.23.46-.8,1-1.22,1.06C-158.38-57.89-161.87-57.92-165.77-57.92Z" transform="translate(165.77 122.62)"/><path class="cls-1" d="M41.16-70.62c.49-.94.93-1.72,1.32-2.54q11.54-24,23-48.11a2,2,0,0,1,2.11-1.29c3.27.08,6.54,0,10,0a9.3,9.3,0,0,1-.37,1.08q-21.21,43-42.41,86A1.71,1.71,0,0,1,33-34.28c-3-.06-6.09,0-9.37,0,.44-.93.79-1.71,1.17-2.46,3.51-6.87,7-13.75,10.57-20.6a2.89,2.89,0,0,0,0-2.88q-15-30.63-29.87-61.27c-.12-.24-.21-.49-.43-1,2.79,0,5.44.2,8-.06,2.42-.24,3.45.75,4.44,2.86C25-103.81,32.7-88,40.31-72.09,40.51-71.65,40.79-71.25,41.16-70.62Z" transform="translate(165.77 122.62)"/><path class="cls-1" d="M-109.13-122.53c3.7,0,7.19,0,10.67.05A2.2,2.2,0,0,1-97-121.3Q-89.58-106-82.25-90.57q4.48,9.34,9,18.67c.18.37.43.71.8,1.3,1.76-3.65,3.41-7.06,5-10.47q9.68-20.2,19.39-40.38a2,2,0,0,1,1.39-1c3.32-.09,6.64,0,10.22,0-.9,1.88-1.72,3.57-2.54,5.27q-14.08,29-28.15,57.93a2.18,2.18,0,0,1-2.38,1.44,57.57,57.57,0,0,0-6,0A2.27,2.27,0,0,1-78-59.41q-11-22.46-22.14-44.88l-8.53-17.25C-108.84-121.78-108.92-122-109.13-122.53Z" transform="translate(165.77 122.62)"/></svg>